<svg width="80" height="18" viewBox="0 0 80 18" fill="none" xmlns="http://www.w3.org/2000/svg">
<path d="M33.267 2.94354H35.7581L40.5753 16.92H38.0671L36.8387 13.3739H31.7997L30.5826 16.92H28.3076L33.267 2.94354ZM32.3741 11.4911H36.2244L34.3305 5.91787H34.2737L32.3741 11.4911Z" fill="#19BEC9"/>
<path d="M45.0114 2.94354H42.5601V16.9142H45.0114V2.94354Z" fill="#19BEC9"/>
<path d="M47.0418 2.94354H49.5897L53.1614 13.7551H53.2126L56.7444 2.94354H59.0307L54.2363 16.92H51.8362L47.0418 2.94354Z" fill="#19BEC9"/>
<path d="M60.9872 2.94354H63.4214V14.9448H69.1486V16.92H60.9872V2.94354Z" fill="#19BEC9"/>
<path d="M71.4121 2.94354H79.892V4.91873H73.8463V8.75359H78.5327V10.7057H73.8463V14.9448H80V16.92H71.4121V2.94354Z" fill="#19BEC9"/>
<path fill-rule="evenodd" clip-rule="evenodd" d="M14.5622 2.30139C14.7245 2.05809 14.8111 1.77206 14.8111 1.47945C14.8111 1.08708 14.6555 0.710771 14.3784 0.433321C14.1014 0.15587 13.7257 0 13.3339 0C13.0417 0 12.7561 0.0867679 12.5132 0.249332C12.2703 0.411896 12.0809 0.642955 11.9691 0.913289C11.8573 1.18362 11.828 1.48109 11.885 1.76808C11.942 2.05506 12.0827 2.31868 12.2893 2.52558C12.4959 2.73249 12.7591 2.87339 13.0457 2.93047C13.3322 2.98756 13.6293 2.95826 13.8992 2.84629C14.1691 2.73431 14.3998 2.54468 14.5622 2.30139ZM16.8982 5.01556L23.4786 16.2235L23.4898 16.2179C23.5969 16.3969 23.6547 16.6011 23.657 16.8098C23.6594 17.0184 23.6063 17.224 23.5033 17.4053C23.4002 17.5866 23.2509 17.7373 23.0705 17.8418C22.8902 17.9463 22.6853 18.0009 22.477 18H8.75667C8.44354 18 8.14324 17.8754 7.92182 17.6537C7.70041 17.4319 7.57602 17.1311 7.57602 16.8175C7.57602 16.5039 7.70041 16.2032 7.92182 15.9814C8.14324 15.7597 8.44354 15.6351 8.75667 15.6351H12.9869L8.04044 7.84558L2.18749 17.434C2.08138 17.6058 1.9331 17.7475 1.75678 17.8456C1.58046 17.9437 1.38199 17.9949 1.18029 17.9944C0.962945 17.9952 0.749722 17.935 0.564772 17.8207C0.297704 17.6571 0.106416 17.3941 0.032965 17.0893C-0.0404857 16.7845 0.00991549 16.4631 0.173085 16.1955L7.01086 4.98755C7.11636 4.81772 7.26296 4.67732 7.43707 4.57936C7.61118 4.48139 7.80717 4.42904 8.00687 4.42715C8.20667 4.42852 8.40287 4.48065 8.57707 4.57866C8.75127 4.67668 8.89777 4.81736 9.00288 4.98755L15.5329 15.254C15.6073 15.3728 15.6603 15.5036 15.6896 15.6407H20.4066L14.8614 6.21482C14.7026 5.94432 14.6576 5.62172 14.7364 5.318C14.8151 5.01427 15.011 4.7543 15.2811 4.59527C15.5512 4.43624 15.8733 4.39117 16.1766 4.47C16.4798 4.54882 16.7394 4.74506 16.8982 5.01556Z" fill="#19BEC9"/>
</svg>
